<svg xmlns="http://www.w3.org/2000/svg" width="1200" height="1200" viewBox="0 0 1200 1200">
  <style>
    .bg { fill: #f8faf8; }
    .grid { stroke: #d4ddd9; stroke-width: 1; }
    .axis { stroke: #6a7f78; stroke-width: 2; stroke-dasharray: 7 6; }
    .wall { fill: #343a40; stroke: #111; stroke-width: 1; }
    .label { font: 18px monospace; fill: #26312d; text-anchor: middle; }
    .tick { font: 16px monospace; fill: #60706b; text-anchor: middle; }
    .note { font: 20px sans-serif; fill: #26312d; }
    .start { fill: #2f80ed; stroke: white; stroke-width: 4; }
  </style>
  <rect width="100%" height="100%" class="bg"/>
  <text x="60" y="48" class="note">Official ArduPilot Gazebo maze.sdf top-down wall geometry</text>
  <text x="60" y="78" class="note">Source: /home/nn/workspace/3588/ardupilot_gz/ardupilot_gz_gazebo/worlds/maze.sdf</text>
  <line x1="131.8" y1="1115.0" x2="131.8" y2="85.0" class="grid"/>
<line x1="85.0" y1="1068.2" x2="1115.0" y2="1068.2" class="grid"/>
<text x="131.8" y="1149.0" class="tick">-10</text>
<text x="57.0" y="1072.2" class="tick">-10</text>
<line x1="365.9" y1="1115.0" x2="365.9" y2="85.0" class="grid"/>
<line x1="85.0" y1="834.1" x2="1115.0" y2="834.1" class="grid"/>
<text x="365.9" y="1149.0" class="tick">-5</text>
<text x="57.0" y="838.1" class="tick">-5</text>
<line x1="600.0" y1="1115.0" x2="600.0" y2="85.0" class="grid"/>
<line x1="85.0" y1="600.0" x2="1115.0" y2="600.0" class="grid"/>
<text x="600.0" y="1149.0" class="tick">0</text>
<text x="57.0" y="604.0" class="tick">0</text>
<line x1="834.1" y1="1115.0" x2="834.1" y2="85.0" class="grid"/>
<line x1="85.0" y1="365.9" x2="1115.0" y2="365.9" class="grid"/>
<text x="834.1" y="1149.0" class="tick">5</text>
<text x="57.0" y="369.9" class="tick">5</text>
<line x1="1068.2" y1="1115.0" x2="1068.2" y2="85.0" class="grid"/>
<line x1="85.0" y1="131.8" x2="1115.0" y2="131.8" class="grid"/>
<text x="1068.2" y="1149.0" class="tick">10</text>
<text x="57.0" y="135.8" class="tick">10</text>
  <line x1="600.0" y1="1115.0" x2="600.0" y2="85.0" class="axis"/>
  <line x1="85.0" y1="600.0" x2="1115.0" y2="600.0" class="axis"/>
  <polygon points="136.5,1068.2 136.5,131.8 127.1,131.8 127.1,1068.2" class="wall"><title>Wall_0</title></polygon>
<polygon points="131.8,1072.9 1068.2,1072.9 1068.2,1063.5 131.8,1063.5" class="wall"><title>Wall_1</title></polygon>
<polygon points="1072.9,1068.2 1072.9,272.3 1063.5,272.3 1063.5,1068.2" class="wall"><title>Wall_2</title></polygon>
<polygon points="131.8,136.5 1068.2,136.5 1068.2,127.1 131.8,127.1" class="wall"><title>Wall_3</title></polygon>
<polygon points="272.3,932.4 1068.2,932.4 1068.2,923.0 272.3,923.0" class="wall"><title>Wall_4</title></polygon>
<polygon points="277.0,927.7 277.0,272.3 267.6,272.3 267.6,927.7" class="wall"><title>Wall_5</title></polygon>
<polygon points="412.7,792.0 1068.2,792.0 1068.2,782.6 412.7,782.6" class="wall"><title>Wall_6</title></polygon>
<polygon points="417.4,787.3 417.4,412.7 408.0,412.7 408.0,787.3" class="wall"><title>Wall_7</title></polygon>
<polygon points="553.2,651.5 1068.2,651.5 1068.2,642.1 553.2,642.1" class="wall"><title>Wall_8</title></polygon>
<polygon points="557.9,646.8 557.9,272.3 548.5,272.3 548.5,646.8" class="wall"><title>Wall_9</title></polygon>
<polygon points="417.4,272.3 417.4,131.8 408.0,131.8 408.0,272.3" class="wall"><title>Wall_10</title></polygon>
<polygon points="553.2,417.4 646.8,417.4 646.8,408.0 553.2,408.0" class="wall"><title>Wall_11</title></polygon>
<polygon points="693.6,277.0 1068.2,277.0 1068.2,267.6 693.6,267.6" class="wall"><title>Wall_12</title></polygon>
<polygon points="838.8,506.4 838.8,272.3 829.4,272.3 829.4,506.4" class="wall"><title>Wall_13</title></polygon>
  <text x="131.8" y="593.0" class="label">Wall_0</text>
<text x="600.0" y="1061.2" class="label">Wall_1</text>
<text x="1068.2" y="663.2" class="label">Wall_2</text>
<text x="600.0" y="124.8" class="label">Wall_3</text>
<text x="670.2" y="920.7" class="label">Wall_4</text>
<text x="272.3" y="593.0" class="label">Wall_5</text>
<text x="740.5" y="780.3" class="label">Wall_6</text>
<text x="412.7" y="593.0" class="label">Wall_7</text>
<text x="810.7" y="639.8" class="label">Wall_8</text>
<text x="553.2" y="452.5" class="label">Wall_9</text>
<text x="412.7" y="195.0" class="label">Wall_10</text>
<text x="600.0" y="405.7" class="label">Wall_11</text>
<text x="880.9" y="265.3" class="label">Wall_12</text>
<text x="834.1" y="382.3" class="label">Wall_13</text>
  <circle cx="600.0" cy="600.0" r="9" class="start"><title>Nominal start / origin</title></circle>
  <text x="614.0" y="586.0" class="note">origin</text>
</svg>
